<?xml version="1.0" standalone="no"?>
<!DOCTYPE svg PUBLIC "-//W3C//DTD SVG 20010904//EN"
 "http://www.w3.org/TR/2001/REC-SVG-20010904/DTD/svg10.dtd">
<svg version="1.0" xmlns="http://www.w3.org/2000/svg"
 width="512.000000pt" height="512.000000pt" viewBox="0 0 512.000000 512.000000"
 preserveAspectRatio="xMidYMid meet">

<g transform="translate(0.000000,512.000000) scale(0.100000,-0.100000)"
fill="#000000" stroke="none">
<path d="M2355 5110 c-321 -27 -628 -112 -920 -255 -766 -374 -1287 -1098
-1411 -1960 -24 -166 -24 -506 0 -670 71 -493 266 -936 573 -1304 l78 -94 6
259 c5 270 12 320 60 430 27 63 99 171 143 213 l36 35 0 492 c0 302 4 512 10
541 14 66 72 140 135 172 46 24 61 26 207 29 l158 3 6 27 c89 401 377 723 761
852 345 115 733 56 1032 -157 145 -104 300 -290 370 -445 29 -64 60 -153 81
-235 l11 -43 143 0 c170 0 220 -13 281 -74 83 -84 79 -54 85 -646 l5 -525 40
3 c106 7 102 3 110 90 13 151 20 158 34 37 7 -60 14 -112 17 -114 2 -2 49 -9
104 -14 55 -6 100 -13 100 -17 0 -4 -45 -11 -100 -17 -55 -5 -102 -12 -104
-14 -11 -11 -26 -200 -17 -216 32 -60 43 -154 50 -407 l6 -259 78 94 c158 189
325 468 411 685 76 192 131 402 162 619 24 164 24 504 0 670 -67 465 -254 906
-536 1260 -399 501 -994 842 -1633 936 -152 22 -429 31 -572 19z m898 -452
l-37 -38 -38 37 -38 37 37 38 37 38 38 -37 38 -37 -37 -38z m-1145 -175 c-18
-18 -36 -33 -42 -33 -6 0 -25 14 -43 32 l-33 32 37 38 37 38 38 -37 38 -37
-32 -33z m-1283 -883 c9 -85 17 -156 19 -157 1 -1 80 -11 175 -22 96 -11 175
-22 178 -24 2 -2 -76 -12 -174 -22 -98 -10 -179 -18 -180 -19 -1 -1 -9 -71
-18 -156 -9 -85 -19 -166 -22 -180 -4 -14 -15 51 -27 155 l-21 180 -178 19
c-97 11 -175 21 -173 23 3 3 321 42 347 43 3 0 14 79 25 176 10 104 21 169 25
158 4 -11 15 -89 24 -174z m3750 -340 c9 -85 17 -156 18 -157 1 -1 72 -9 157
-18 85 -9 163 -20 174 -24 11 -4 -54 -15 -158 -25 -97 -11 -176 -23 -176 -28
0 -20 -31 -285 -37 -318 -5 -26 -12 13 -27 145 l-21 180 -180 21 c-107 12
-170 23 -155 27 14 3 95 13 180 22 85 9 155 17 156 18 1 1 9 83 20 181 11 113
21 170 25 155 4 -13 15 -94 24 -179z m-3995 -615 l34 -35 -37 -38 -37 -37 -37
37 -37 38 34 35 c19 19 37 35 40 35 3 0 21 -16 40 -35z m3950 -360 l34 -35
-37 -38 -37 -37 -37 37 -37 38 34 35 c19 19 37 35 40 35 3 0 21 -16 40 -35z
m-4000 -390 l34 -35 -37 -38 -37 -37 -37 37 -37 38 34 35 c19 19 37 35 40 35
3 0 21 -16 40 -35z"/>
<path d="M4266 1699 c12 -13 38 -49 58 -79 l37 -55 -7 70 c-3 39 -8 72 -10 74
-2 2 -25 6 -51 9 l-48 5 21 -24z"/>
</g>
</svg>
